<svg xmlns="http://www.w3.org/2000/svg" width="81" height="18" fill="none" viewBox="0 0 136 30"><g fill="#757575" clip-path="url(#a)"><path d="M13.195.012H.562v10.15l4.408 4.403V4.425h12.632zM13.195 15.37H.562v10.151l4.408 4.403v-10.14h12.632zM48.56 27.345c-5.936 0-9.574-4.877-9.574-10.154s3.638-10.154 9.575-10.154 9.574 4.877 9.574 10.154-3.637 10.154-9.574 10.154m0-3.16c3.28 0 5.125-2.855 5.125-6.984s-1.834-6.983-5.124-6.983-5.083 2.812-5.083 6.983c0 4.172 1.835 6.984 5.083 6.984M69.629 27.345c-5.747 0-9.417-4.761-9.417-10.154S63.765 7.037 69.47 7.037c4.577 0 8.014 2.496 8.753 7.11H73.92c-.464-2.497-2.066-3.94-4.376-3.94-3.163 0-4.85 2.929-4.85 6.984s1.792 6.983 5.04 6.983c2.267 0 3.912-1.527 4.334-4.023h4.334c-.738 4.603-4.218 7.183-8.794 7.183zM84.796 16.77v10.185h-4.26V.022h4.26v15.462M93.727 9.112l-5.81 5.804-3.121 3.118 3.121 3.118 5.81 5.804h6.243l-3.122-3.118-5.81-5.804 5.81-5.814 3.122-3.108zM101.997 26.954v-4.37h4.534v4.37zM109.371 4.35V.023h4.534V4.35zm.116 22.605V7.437h4.26v19.518zM125.863 27.345c-5.936 0-9.574-4.877-9.574-10.154s3.638-10.154 9.574-10.154c5.937 0 9.575 4.877 9.575 10.154s-3.638 10.154-9.575 10.154m0-3.16c3.28 0 5.125-2.855 5.125-6.984s-1.835-6.983-5.125-6.983-5.082 2.812-5.082 6.983c0 4.172 1.835 6.984 5.082 6.984M20.212 0h4.244v23.12h11.925v3.9H20.212z"></path></g><defs><clipPath id="a"><path fill="#757575" d="M.562 0h134.876v30H.562z"></path></clipPath></defs></svg>